PathFileType	4	(X/Y/Z)	C:/Users/beibeiliu/ov580/test_trc/User3\sequence.8_training_dense_left.trc
DataRate	CameraRate	NumFrames	NumMarkers	Units	OrigDataRate	OrigDataStartFrame	OrigNumFrames
120	120	17	19	mm	120	28	81
Frame#	Time	ThumbCMC			ThumbMCP			ThumbIP			ThumbTip			IndexMCP			IndexPIP			IndexTip			MiddleMCP			MiddlePIP			MiddleTip			RingMCP			RingPIP			RingTip			PinkyMCP			PinkyPIP			PinkyTip			BackHand1			BackHand2			BackHand3	
		X0	Y0	Z0	X1	Y1	Z1	X2	Y2	Z2	X3	Y3	Z3	X4	Y4	Z4	X5	Y5	Z5	X6	Y6	Z6	X7	Y7	Z7	X8	Y8	Z8	X9	Y9	Z9	X10	Y10	Z10	X11	Y11	Z11	X12	Y12	Z12	X13	Y13	Z13	X14	Y14	Z14	X15	Y15	Z15	X16	Y16	Z16	X17	Y17	Z17	X18	Y18	Z18	
27	0.225	-196.637	-6.98102	1.8015	-210.259	14.511	-13.3138	-228.563	30.931	-34.3663	-238.122	46.8823	-42.5079	-223.513	-27.172	-66.5607	-238.404	-18.0521	-91.0857	-244.748	-17.6645	-113.117	-217.413	-48.8391	-77.6372	-224.226	-50.4864	-102.369	-236.521	-45.5195	-132.768	-195.643	-67.212	-71.7119	-202.49	-70.3096	-97.5162	-207.531	-75.3237	-117.955	-169.938	-79.5502	-59.8726	-170.693	-82.0609	-78.1079	-170.847	-94.0617	-98.999	-189.701	-64.2367	-19.9589	-179.758	-67.4061	9.27587	-204.349	-41.2991	-7.05148	
28	0.233333	-189.47	13.7298	3.09732	-191.5	30.9883	-12.6175	-200.733	53.9114	-31.0075	-204.179	71.2499	-40.536	-227.772	4.01808	-63.1743	-236.696	13.0089	-84.2138	-247.776	21.2505	-110.418	-228.736	-19.7097	-67.9141	-240.781	-15.423	-96.2129	-248.581	-12.7324	-121.488	-219.017	-43.3808	-68.8298	-229.689	-42.7749	-90.4012	-238.068	-45.0843	-111.218	-200.797	-63.4571	-56.148	-205.118	-72.6006	-76.9909	-213.31	-81.3456	-94.9013	-209.066	-49.3159	-18.5788	-198.036	-49.7843	14.3421	-210.164	-17.9142	0.296914	
29	0.241667	-169.256	21.5523	3.81063	-168.646	40.2296	-17.3472	-165.615	66.3975	-32.1559	-161.66	81.5962	-44.3358	-216.174	26.9172	-59.5486	-221.911	42.1162	-81.6243	-228.718	55.0204	-105.501	-232.499	5.7317	-64.9229	-240.624	14.9909	-89.5697	-250.673	25.2019	-119.506	-230.171	-17.0556	-61.2573	-241.883	-14.7769	-82.171	-254.979	-15.8954	-102.913	-221.86	-40.8709	-49.5729	-235.338	-47.4594	-68.3702	-247.172	-51.1275	-86.1937	-214.91	-20.723	-9.43025	-205.411	-27.0473	15.6218	-202.722	6.36445	2.93923	
30	0.25	-154.517	20.7248	-7.10886	-142.2	40.1555	-26.8776	-134.148	52.7226	-46.6002	-124.847	68.2689	-62.2225	-195.116	44.1984	-68.3701	-199.804	51.0308	-87.598	-205.631	64.2532	-113.939	-220.843	25.3055	-64.2564	-230.14	35.4454	-90.8275	-237.908	43.536	-117.807	-231.921	6.14162	-59.1918	-245.351	8.60962	-79.1347	-255.187	16.0298	-101.181	-233.483	-18.8336	-44.376	-247.223	-21.0761	-58.2098	-266.54	-19.6215	-77.1058	-217.046	-0.386002	-9.972	-203.913	-7.39438	17.9203	-189.562	20.6329	-1.85891	
31	0.258333	-137.921	16.9994	-14.1907	-120.73	28.3404	-37.1481	-111.907	36.8326	-58.6019	-96.2889	46.1054	-72.528	-177.271	41.7007	-80.5296	-173.775	48.7286	-101.45	-175.944	58.9513	-125.656	-203.902	36.793	-77.3359	-209.696	43.192	-102.216	-215.996	53.4142	-130.308	-222.043	17.186	-62.1443	-231.398	23.3509	-81.3148	-245.623	30.8549	-104.768	-229.33	-3.01442	-42.6664	-248.038	-0.340344	-58.1499	-261.69	2.93753	-71.1776	-203.978	16.5087	-14.7235	-191.299	9.37454	12.8724	-168.721	28.9371	-13.535	
32	0.266667	-126.26	12.5481	-20.2424	-108.97	17.8673	-40.7114	-92.6876	23.7598	-64.1293	-82.2389	27.064	-81.0123	-156.574	34.5639	-84.713	-156.232	39.394	-111.639	-157.087	47.0756	-135.153	-188.083	34.7264	-82.9616	-192.152	41.3674	-108.922	-195.033	48.5165	-138.931	-206.178	24.6841	-70.3016	-217.787	28.8169	-88.1819	-229.49	35.3869	-110.989	-221.966	7.20123	-48.7254	-234.489	12.8645	-65.3086	-252.737	18.4898	-79.3124	-192.549	23.9558	-22.492	-180.666	17.5089	6.57464	-159.619	26.93	-18.0651	
33	0.275	-116.228	9.82756	-20.2029	-99.6994	12.3981	-43.0405	-84.7026	15.4384	-69.9624	-74.2689	14.6676	-82.1797	-149.82	30.4515	-89.6232	-146.853	34.2537	-114.431	-144.235	40.8311	-138.205	-174.988	34.8111	-90.4226	-178.932	38.8682	-113.147	-180.635	46.1944	-140.074	-196.32	27.7063	-77.0105	-205.92	31.6206	-93.7147	-217.418	40.7631	-117.334	-215.732	16.2836	-54.783	-225.628	20.2299	-70.1084	-242.297	28.8183	-78.837	-179.974	28.6548	-27.3674	-174.428	24.2012	-0.235595	-149.734	30.019	-22.3593	
34	0.283333	-116.619	11.6875	-16.9201	-98.3038	14.363	-39.4785	-87.0663	19.2208	-64.2484	-76.5883	22.2693	-82.8352	-145.295	44.065	-81.2917	-145.459	52.4146	-109.433	-145.126	61.1898	-125.537	-171.423	51.6766	-82.7063	-176.891	58.8309	-106.321	-178.882	70.9369	-133.911	-194.413	43.1075	-67.203	-199.726	52.3736	-88.515	-211.927	63.2602	-108.938	-209.359	27.4903	-45.7008	-222.227	39.1731	-63.6083	-234.51	50.5027	-75.746	-176.208	36.4985	-19.9584	-170.496	27.0146	9.96394	-146.943	34.7731	-15.557	
35	0.291667	-115.093	21.9178	-9.9482	-101.586	35.5981	-34.3356	-92.2882	45.4476	-55.7678	-82.333	53.2322	-75.1037	-144.752	77.5649	-59.4106	-142.675	94.5316	-83.5408	-145.92	106.9	-98.5188	-175.372	83.6573	-56.6719	-175.82	99.0415	-78.7707	-179.037	116.985	-102.733	-194.207	70.0777	-47.1404	-200.548	86.9643	-65.3143	-208.888	100.272	-82.8763	-210.409	53.2302	-33.9899	-221.738	66.0747	-47.3316	-235.139	75.9282	-56.9239	-179.56	49.5588	-5.10942	-172.834	31.8765	20.2331	-145.964	42.9213	-0.809724	
36	0.3	-113.794	27.6706	-8.70152	-102.296	44.0829	-30.6426	-92.0967	57.5189	-50.7024	-77.9033	68.7628	-67.7645	-148.838	89.6433	-47.6985	-147.53	107.813	-63.6358	-150.144	126.652	-80.7367	-172.623	92.774	-42.4535	-174.103	112.057	-60.3703	-183.409	133.34	-81.4409	-192.321	77.732	-36.3074	-198.891	95.4146	-50.5813	-208.718	118.096	-70.6169	-207.976	60.2574	-29.6297	-219.384	73.4795	-40.0886	-237.056	87.1015	-49.2651	-179.89	48.1652	2.02125	-171.477	31.4802	21.7405	-145.493	45.9496	3.7696	
37	0.308333	-113.424	26.8755	-10.7566	-99.5451	43.1532	-31.922	-88.381	54.6373	-50.9525	-74.9568	65.5754	-67.258	-146.972	90.7965	-49.3678	-145.118	109.124	-65.6855	-144.866	126.105	-83.6603	-172.526	88.4477	-41.6141	-175.857	109.914	-60.6351	-183.261	130.27	-81.9234	-192.439	74.8387	-36.1418	-198.143	96.031	-53.3041	-213.278	114.013	-69.8284	-206.607	51.7455	-25.9614	-221.719	65.7872	-37.7599	-232.805	80.4969	-46.7366	-172.131	45.2162	2.16937	-171.081	26.7775	23.1155	-139.598	46.2962	2.34361	
38	0.316667	-113.276	21.1038	-13.1163	-94.9711	30.1635	-36.4095	-82.9509	41.3637	-59.2331	-75.7727	45.5246	-76.4294	-144.83	71.9915	-61.1954	-141.441	88.4334	-85.9236	-147.546	101.148	-106.387	-167.953	74.7862	-57.3991	-176.633	90.4609	-80.7678	-185.554	106.711	-108.062	-190.139	62.5603	-50.2969	-200.655	75.3702	-67.3764	-213.4	87.8059	-86.3466	-206.701	42.2097	-35.4924	-223.611	49.5092	-45.7107	-242.183	61.8249	-59.1794	-174.251	39.3884	-4.25376	-163.974	27.5321	18.0255	-137.521	42.6224	-3.02676	
39	0.325	-115.08	11.4517	-17.1899	-101.45	9.68561	-40.7961	-84.9535	12.6811	-69.4725	-71.3261	13.3716	-87.8829	-148.016	36.2539	-87.9545	-145.187	38.1844	-108.489	-147.313	41.9417	-136.127	-176.48	38.8437	-82.9104	-180.457	40.5158	-109.764	-187.146	43.1373	-134.829	-192.526	28.8853	-67.826	-205.694	31.0725	-89.5941	-220.731	34.7335	-111.897	-211.215	16.6101	-46.9475	-226.427	17.0221	-60.5494	-243.931	18.9003	-76.6559	-173.973	31.8512	-17.2747	-168.744	26.12	9.9368	-138.847	32.7927	-14.7606	
40	0.333333	-111.071	-0.245693	-20.8126	-99.11	-11.4909	-41.5376	-82.6526	-20.5543	-64.11	-68.0114	-27.7876	-77.6339	-146.927	-14.7345	-94.4878	-141.609	-25.8657	-113.367	-144.453	-32.2443	-134.798	-173.472	-12.2535	-91.4178	-175.368	-23.1289	-113.85	-175.596	-34.1182	-142.177	-194.841	-14.6006	-73.8387	-202.479	-22.7041	-93.8588	-213.615	-32.8924	-118.034	-207.841	-16.0521	-50.2255	-224.765	-25.1305	-61.4058	-238.666	-28.942	-78.3025	-181.432	12.7229	-31.9158	-171.887	22.3809	-3.34861	-144.949	19.4451	-27.4721	
41	0.341667	-113.911	-8.54276	-18.7298	-100.779	-26.0655	-30.1453	-79.994	-44.3512	-51.7302	-68.9766	-56.1571	-62.6136	-141.294	-47.1002	-83.0714	-136.715	-63.8859	-98.3244	-137.924	-81.1425	-115.891	-170.061	-47.5686	-86.5107	-168.584	-65.3415	-104.343	-172.229	-85.959	-125.714	-193.602	-44.1045	-68.8441	-196.642	-60.4176	-86.4868	-205.047	-78.7345	-104.626	-211.748	-41.5412	-46.1367	-222.749	-55.6981	-56.5773	-239.391	-67.4751	-69.6573	-180.895	-4.59703	-36.8238	-173.873	12.7288	-13.717	-145.028	4.75978	-32.2968	
42	0.35	-118.737	-17.9782	-14.9346	-98.3265	-34.1571	-23.3566	-85.5601	-58.1417	-37.9486	-71.9329	-71.31	-43.8288	-137.236	-64.758	-71.7609	-133.361	-89.0275	-84.482	-131.056	-109.933	-99.0114	-166.635	-68.8389	-76.5986	-166.593	-89.4619	-90.2373	-162.224	-115.738	-108.869	-191.528	-61.7037	-60.5255	-199.458	-82.1982	-75.0722	-202.853	-102.586	-89.6047	-211.012	-55.4878	-39.9123	-220.774	-71.7555	-48.7721	-233.375	-85.2616	-59.4908	-180.916	-13.9646	-35.1533	-178.041	6.42717	-15.2877	-147.941	-5.24663	-31.5725	
43	0.358333	-117.911	-18.4975	-10.2774	-103.061	-38.8122	-19.4768	-85.5011	-57.7158	-29.5968	-70.0137	-76.3534	-39.0056	-142.103	-70.9938	-67.8147	-132.053	-89.3012	-76.9879	-131.728	-108.424	-90.6474	-168.039	-69.3296	-69.2642	-162.763	-94.0474	-85.9024	-163.621	-117.126	-100.385	-190.504	-67.0616	-58.8868	-196.446	-82.7477	-69.6024	-205.799	-105.092	-84.0752	-208.625	-59.042	-39.7491	-220.223	-73.0433	-44.8876	-231.632	-85.1917	-54.585	-180.241	-18.2358	-34.8586	-181.543	5.43584	-13.0091	-146.347	-7.2022	-28.432	
